<?xml version="1.0" encoding="UTF-8" standalone="no"?>
<!-- Created with Inkscape (http://www.inkscape.org/) -->

<svg
   xmlns:dc="http://purl.org/dc/elements/1.1/"
   xmlns:cc="http://creativecommons.org/ns#"
   xmlns:rdf="http://www.w3.org/1999/02/22-rdf-syntax-ns#"
   xmlns:svg="http://www.w3.org/2000/svg"
   xmlns="http://www.w3.org/2000/svg"
   xmlns:sodipodi="http://sodipodi.sourceforge.net/DTD/sodipodi-0.dtd"
   xmlns:inkscape="http://www.inkscape.org/namespaces/inkscape"
   width="128"
   height="128"
   viewBox="0 0 33.866666 33.866668"
   version="1.1"
   id="svg8"
   sodipodi:docname="chant-symbolic.svg"
   inkscape:version="0.92.3 (2405546, 2018-03-11)">
  <defs
     id="defs2" />
  <sodipodi:namedview
     id="base"
     pagecolor="#ffffff"
     bordercolor="#666666"
     borderopacity="1.0"
     inkscape:pageopacity="0.0"
     inkscape:pageshadow="2"
     inkscape:zoom="2.8"
     inkscape:cx="81.796118"
     inkscape:cy="76.455572"
     inkscape:document-units="mm"
     inkscape:current-layer="layer1"
     showgrid="false"
     units="px"
     inkscape:window-width="1366"
     inkscape:window-height="705"
     inkscape:window-x="0"
     inkscape:window-y="30"
     inkscape:window-maximized="1" />
  <metadata
     id="metadata5">
    <rdf:RDF>
      <cc:Work
         rdf:about="">
        <dc:format>image/svg+xml</dc:format>
        <dc:type
           rdf:resource="http://purl.org/dc/dcmitype/StillImage" />
        <dc:title></dc:title>
      </cc:Work>
    </rdf:RDF>
  </metadata>
  <g
     inkscape:label="Camada 1"
     inkscape:groupmode="layer"
     id="layer1"
     transform="translate(0,-263.13332)">
    <g
       id="g818"
       transform="matrix(0.12174157,0,0,0.1216152,0.84168436,260.04936)">
      <path
         id="path815-3"
         d="M 132.29167,55.929427 A 108.77868,108.77868 0 0 0 23.512777,164.70832 108.77868,108.77868 0 0 0 132.29167,273.48721 108.77868,108.77868 0 0 0 240.10421,177.76075 99.755455,99.755455 0 0 1 141.31489,264.46399 99.755455,99.755455 0 0 1 41.559221,164.70832 99.755455,99.755455 0 0 1 141.31489,64.952648 99.755455,99.755455 0 0 1 240.32487,153.56998 108.77868,108.77868 0 0 0 132.29167,55.929427 Z"
         style="opacity:1;vector-effect:none;fill:#000000;fill-opacity:1;stroke-width:0.52021939;stroke-linecap:butt;stroke-linejoin:miter;stroke-miterlimit:4;stroke-dasharray:none;stroke-dashoffset:0;stroke-opacity:1"
         inkscape:connector-curvature="0" />
      <path
         id="path815"
         d="m 132.29167,55.929427 a 108.77868,108.77868 0 0 1 2.62619,0.09147 108.77868,108.77868 0 0 0 -2.62619,-0.09147 z m 9.47384,0.517798 a 108.77868,108.77868 0 0 1 6.02547,0.715718 108.77868,108.77868 0 0 0 -6.02547,-0.715718 z m 10.52442,1.452107 a 108.77868,108.77868 0 0 1 6.45439,1.431439 108.77868,108.77868 0 0 0 -6.45439,-1.431439 z m 10.33735,2.473751 a 108.77868,108.77868 0 0 1 6.77943,2.232938 108.77868,108.77868 0 0 0 -6.77943,-2.232938 z m 10.05469,3.473691 a 108.77868,108.77868 0 0 1 6.9944,3.108854 108.77868,108.77868 0 0 0 -6.9944,-3.108854 z m -31.36708,1.105874 a 99.755455,99.755455 0 0 0 -99.755669,99.755672 99.755455,99.755455 0 0 0 99.755669,99.75567 99.755455,99.755455 0 0 0 97.75475,-81.05655 90.069816,90.069816 0 0 1 -88.06904,71.37084 90.069816,90.069816 0 0 1 -90.069953,-90.06996 90.069816,90.069816 0 0 1 90.069953,-90.069959 90.069816,90.069816 0 0 1 88.51605,73.677159 108.77868,108.77868 0 0 0 -0.22066,-1.43557 99.755455,99.755455 0 0 0 -97.9811,-81.927302 z m 97.9811,81.927302 a 99.755455,99.755455 0 0 1 0.39326,2.204 90.069816,90.069816 0 0 1 0.22685,1.5999 99.755455,99.755455 0 0 1 0.40876,2.88613 108.77868,108.77868 0 0 0 -1.64744,-10.71407 108.77868,108.77868 0 0 1 0.61857,4.02404 z m 1.02887,6.69003 a 108.77868,108.77868 0 0 0 -0.27801,-1.80764 90.069816,90.069816 0 0 1 0.79788,6.57376 108.77868,108.77868 0 0 0 -0.51987,-4.76612 z M 182.35424,68.289396 a 108.77868,108.77868 0 0 1 7.07399,4.033861 108.77868,108.77868 0 0 0 -7.07399,-4.033861 z m 9.20564,5.376415 a 108.77868,108.77868 0 0 1 7.00526,4.982644 108.77868,108.77868 0 0 0 -7.00526,-4.982644 z m 8.6465,6.26215 a 108.77868,108.77868 0 0 1 6.79649,5.939689 108.77868,108.77868 0 0 0 -6.79649,-5.939689 z m 7.99693,7.085872 a 108.77868,108.77868 0 0 1 6.43733,6.874 108.77868,108.77868 0 0 0 -6.43733,-6.874 z m 7.27811,7.855337 a 108.77868,108.77868 0 0 1 5.93659,7.76748 108.77868,108.77868 0 0 0 -5.93659,-7.76748 z m 6.47402,8.53901 a 108.77868,108.77868 0 0 1 5.29942,8.59379 108.77868,108.77868 0 0 0 -5.29942,-8.59379 z m 5.61517,9.16017 a 108.77868,108.77868 0 0 1 4.53047,9.31829 108.77868,108.77868 0 0 0 -4.53047,-9.31829 z m 4.69118,9.68881 a 108.77868,108.77868 0 0 1 3.65301,9.92756 108.77868,108.77868 0 0 0 -3.65301,-9.92756 z m 3.71605,10.12652 a 108.77868,108.77868 0 0 1 2.68356,10.39781 108.77868,108.77868 0 0 0 -2.68356,-10.39781 z m 4.64261,41.31737 a 90.069816,90.069816 0 0 1 -1.07228,7.09569 99.755455,99.755455 0 0 0 0.55604,-3.03599 108.77868,108.77868 0 0 0 0.51624,-4.0597 z m -0.51624,4.0597 a 108.77868,108.77868 0 0 1 -107.81254,95.72646 108.77868,108.77868 0 0 0 107.81254,-95.72646 z"
         style="opacity:0.5;vector-effect:none;fill:#000000;fill-opacity:1;stroke-width:0.52021939;stroke-linecap:butt;stroke-linejoin:miter;stroke-miterlimit:4;stroke-dasharray:none;stroke-dashoffset:0;stroke-opacity:1"
         inkscape:connector-curvature="0" />
      <path
         d="m 165.4412,201.61943 q -1.93517,7.22213 -7.30426,12.59991 l -2.26365,-0.60655 q 5.09283,-5.85612 6.58032,-11.40752 1.53081,-5.71306 -2.9114,-11.98677 -2.45782,-3.54687 -8.93853,-9.32707 l -7.45188,27.81082 q -1.42971,5.33571 -7.43858,7.71155 -5.5055,2.22187 -11.00297,0.74883 -3.17991,-0.85206 -5.03534,-3.1978 -2.08164,-2.57952 -1.25846,-5.65168 1.34307,-5.0124 7.65426,-7.65377 5.90103,-2.40473 11.07519,-1.01832 3.01813,0.80871 4.79857,2.78771 l 24.31967,-90.76222 2.64089,0.70763 q -1.07116,5.72063 2.17905,11.27062 5.41984,9.30847 6.33681,11.92256 2.13136,6.05895 0.15285,13.44285 -0.75094,2.80256 -2.39334,5.48195 0.30088,3.83536 -0.8689,8.20101 -0.6643,2.47923 -2.31023,5.38874 0.52704,4.06934 -0.70051,8.65057 -0.72207,2.69482 -2.74274,6.13929 0.69755,2.78636 -0.0967,5.75068 -0.83761,3.12598 -2.96104,5.44541 1.08156,3.29358 -0.0593,7.55149 z m 9.57725,-52.774 q 2.45507,-9.16246 -9.75653,-22.65929 -1.0743,4.21797 1.7566,9.82886 2.56462,4.44204 5.11481,8.9379 1.44152,2.81243 2.18518,6.07337 0.36733,-0.94118 0.69952,-2.18095 z m -3.57267,13.54199 q 1.5308,-5.71307 -2.05573,-12.16182 -2.18061,-3.93482 -7.85576,-10.13445 -0.85277,4.04616 2.11277,9.57766 2.57906,4.38811 5.21194,8.79065 1.36269,2.67572 2.08526,5.58437 0.22542,-0.63267 0.49985,-1.65686 z m -3.25893,14.31934 q 1.51636,-5.65914 -2.33584,-12.41013 -2.24898,-3.89535 -8.04244,-10.30007 -0.85276,4.04616 2.49002,9.67874 2.80908,4.39196 5.5498,8.8234 1.1259,2.26574 1.81179,5.74226 0.41069,-1.10304 0.52625,-1.53431 z m -3.33043,13.7226 q 2.90278,-10.8333 -10.38779,-23.75269 -0.75422,5.40136 3.56488,12.56631 6.01546,10.10346 6.61014,11.76475 0.22542,-0.63267 0.21089,-0.57843 z"
         style="font-style:normal;font-weight:normal;font-size:medium;line-height:1.25;font-family:sans-serif;letter-spacing:0px;word-spacing:0px;opacity:0.75;fill:#000000;fill-opacity:1;stroke:none;stroke-width:2.85686207"
         id="path889"
         inkscape:connector-curvature="0" />
    </g>
  </g>
</svg>
